<svg xmlns="http://www.w3.org/2000/svg" width="201.07999999999998" height="43.665" viewBox="4.672 -43.05 201.07999999999998 43.665">
  <title>Kaivros Logo</title>
  <path d="M13.89 0L4.67 0L4.67-42.24L13.89-42.24L13.89-23.36Q17.15-24.70 20-26.78Q22.85-28.86 25.09-31.42Q27.33-33.98 28.93-36.74Q30.53-39.49 31.23-42.24L31.23-42.24L41.79-42.24Q40.90-39.10 39.07-36Q37.25-32.90 34.75-30.14Q32.26-27.39 29.47-25.25Q26.69-23.10 23.87-21.89L23.87-21.89L23.87-20.93Q26.82-20.93 29.15-20.26Q31.49-19.58 33.31-18.14Q35.14-16.70 36.54-14.59Q37.95-12.48 39.04-9.54L39.04-9.54L42.43 0L32 0L29.76-7.68Q28.86-10.82 27.39-12.70Q25.92-14.59 23.62-15.46Q21.31-16.32 17.60-16.32L17.60-16.32L13.89-16.32L13.89 0Z" fill="#D65A3E"></path>
  <path d="M57.05 0.61L57.05 0.61Q53.05 0.61 49.82-1.41Q46.59-3.44 44.71-6.92Q42.84-10.39 42.84-14.70L42.84-14.70Q42.84-19.07 44.71-22.54Q46.59-26.01 49.82-28.07Q53.05-30.13 57.05-30.13L57.05-30.13Q60.43-30.13 63.04-28.69Q65.66-27.24 67.19-24.72Q68.73-22.20 68.73-19.00L68.73-19.00L68.73-10.52Q68.73-7.32 67.22-4.80Q65.72-2.28 63.07-0.83Q60.43 0.61 57.05 0.61ZM58.15-5.78L58.15-5.78Q61.90-5.78 64.21-8.30Q66.52-10.82 66.52-14.76L66.52-14.76Q66.52-17.40 65.47-19.43Q64.42-21.46 62.55-22.60Q60.67-23.74 58.15-23.74L58.15-23.74Q55.69-23.74 53.82-22.60Q51.94-21.46 50.86-19.43Q49.79-17.40 49.79-14.76L49.79-14.76Q49.79-12.12 50.86-10.09Q51.94-8.06 53.82-6.92Q55.69-5.78 58.15-5.78ZM72.85 0L66.09 0L66.09-7.93L67.25-15.13L66.09-22.26L66.09-29.52L72.85-29.52L72.85 0ZM87.18 0L80.42 0L80.42-29.52L87.18-29.52L87.18 0ZM83.80-34.93L83.80-34.93Q82.08-34.93 80.94-36.10Q79.80-37.27 79.80-38.99L79.80-38.99Q79.80-40.71 80.94-41.88Q82.08-43.05 83.80-43.05L83.80-43.05Q85.58-43.05 86.69-41.88Q87.80-40.71 87.80-38.99L87.80-38.99Q87.80-37.27 86.69-36.10Q85.58-34.93 83.80-34.93ZM108.64 0L104.71 0L91.24-29.52L98.74-29.52L109.01-5.47L104.58-5.47L114.92-29.52L122.11-29.52L108.64 0ZM132.87 0L126.11 0L126.11-29.52L132.87-29.52L132.87 0ZM132.87-16.42L132.87-16.42L130.54-17.59Q130.54-23.19 133.03-26.66Q135.52-30.13 140.56-30.13L140.56-30.13Q142.78-30.13 144.56-29.34Q146.34-28.54 147.88-26.75L147.88-26.75L143.45-22.20Q142.65-23.06 141.67-23.43Q140.69-23.80 139.39-23.80L139.39-23.80Q136.56-23.80 134.72-22.02Q132.87-20.23 132.87-16.42ZM163.81 0.61L163.81 0.61Q159.50 0.61 156.00-1.45Q152.49-3.51 150.43-7.01Q148.37-10.52 148.37-14.82L148.37-14.82Q148.37-19.13 150.43-22.57Q152.49-26.01 156.00-28.07Q159.50-30.13 163.81-30.13L163.81-30.13Q168.18-30.13 171.68-28.11Q175.19-26.08 177.25-22.60Q179.31-19.13 179.31-14.82L179.31-14.82Q179.31-10.52 177.25-7.01Q175.19-3.51 171.68-1.45Q168.18 0.61 163.81 0.61ZM163.81-5.90L163.81-5.90Q166.33-5.90 168.27-7.04Q170.21-8.18 171.28-10.21Q172.36-12.24 172.36-14.82L172.36-14.82Q172.36-17.40 171.25-19.37Q170.14-21.34 168.24-22.48Q166.33-23.62 163.81-23.62L163.81-23.62Q161.35-23.62 159.41-22.48Q157.47-21.34 156.40-19.37Q155.32-17.40 155.32-14.82L155.32-14.82Q155.32-12.24 156.40-10.21Q157.47-8.18 159.41-7.04Q161.35-5.90 163.81-5.90ZM194.56 0.61L194.56 0.61Q192.10 0.61 189.82-0.03Q187.55-0.68 185.64-1.88Q183.73-3.08 182.32-4.80L182.32-4.80L186.63-9.10Q188.16-7.32 190.16-6.43Q192.16-5.54 194.68-5.54L194.68-5.54Q196.96-5.54 198.13-6.21Q199.29-6.89 199.29-8.18L199.29-8.18Q199.29-9.53 198.19-10.27Q197.08-11.01 195.33-11.53Q193.57-12.05 191.64-12.61Q189.70-13.16 187.95-14.11Q186.19-15.07 185.09-16.73Q183.98-18.39 183.98-21.03L183.98-21.03Q183.98-23.86 185.30-25.89Q186.63-27.92 189.05-29.03Q191.48-30.13 194.87-30.13L194.87-30.13Q198.43-30.13 201.17-28.87Q203.91-27.61 205.75-25.09L205.75-25.09L201.45-20.79Q200.16-22.39 198.49-23.19Q196.83-23.98 194.68-23.98L194.68-23.98Q192.65-23.98 191.55-23.37Q190.44-22.75 190.44-21.59L190.44-21.59Q190.44-20.36 191.55-19.68Q192.65-19.00 194.41-18.51Q196.16-18.02 198.10-17.44Q200.03-16.85 201.79-15.84Q203.54-14.82 204.64-13.13Q205.75-11.44 205.75-8.73L205.75-8.73Q205.75-4.43 202.74-1.91Q199.72 0.61 194.56 0.61Z" fill="white"></path>
</svg>